#!OML:ASF F:\VICON\USERDATA\INSTALL\rory3\rory3.ASF
:FULLY-SPECIFIED
:DEGREES
180
root 4.64735 15.8716 -7.67437 238.511 51.9889 -141.075
lowerback 7.99223 0.171337 -8.19042
upperback -2.09483 -0.637772 -9.51503
thorax -6.7628 0.047359 -5.49037
lowerneck -23.5158 2.77586 -5.55663
upperneck 19.2981 3.68772 9.60427
head 9.683 2.53847 4.88018
rclavicle 1.62208e-013 3.81667e-014
rhumerus -16.427 -8.3285 -14.7031
rradius 42.1055
rwrist 0.543939
rhand -29.5545 -54.5647
rfingers 7.12502
rthumb 177.113 95.4751
lclavicle 1.62208e-013 3.81667e-014
lhumerus -2.24069 6.91426 33.6765
lradius 39.3805
lwrist 31.3663
lhand -44.7499 -750.811
lfingers 7.12502
lthumb -17.5429 -1.58274
rfemur -30.5628 -7.70901 40.2621
rtibia 47.9588
rfoot -20.5603 -30.5837
rtoes -18.5976
lfemur -78.5808 22.7045 -26.6041
ltibia 63.2858
lfoot -23.2036 28.1706
ltoes 16.998
181
root 4.62258 15.9094 -7.60204 238.118 52.9142 -141.704
lowerback 7.49346 0.0905238 -7.88303
upperback -2.25114 -0.670935 -9.41254
thorax -6.64539 0.0146545 -5.53679
lowerneck -23.1916 2.57637 -5.82801
upperneck 19.4807 3.43005 9.85837
head 9.70194 2.4276 4.97989
rclavicle 3.18055e-015 1.30403e-013
rhumerus -16.6528 -7.57345 -15.6615
rradius 43.0776
rwrist 0.995103
rhand -29.6255 -53.9879
rfingers 7.12502
rthumb 177.044 96.0528
lclavicle 3.18055e-015 1.30403e-013
lhumerus -2.62244 6.22566 33.9022
lradius 40.079
lwrist 30.5816
lhand -45.174 -751.96
lfingers 7.12502
lthumb -17.951 -2.76837
rfemur -30.4279 -7.01649 39.3835
rtibia 47.3548
rfoot -22.3473 -30.3292
rtoes -15.9331
lfemur -78.3747 22.7826 -27.214
ltibia 62.8974
lfoot -21.903 27.058
ltoes 16.0912
182
root 4.59306 15.9217 -7.53004 237.719 53.7132 -142.275
lowerback 7.25074 0.0445167 -7.63356
upperback -2.43631 -0.710605 -9.18143
thorax -6.70444 -0.0185208 -5.41774
lowerneck -23.6115 2.10092 -6.58194
upperneck 20.4511 2.8569 10.5487
head 10.1518 2.2006 5.34543
rclavicle -1.90833e-014 8.5875e-014
rhumerus -16.9337 -7.00957 -16.4878
rradius 44.2197
rwrist 1.78219
rhand -29.1572 -53.4783
rfingers 7.12502
rthumb 177.496 96.5566
lclavicle -1.90833e-014 8.5875e-014
lhumerus -3.06201 5.59095 34.3605
lradius 40.8179
lwrist 29.9297
lhand -45.1169 -750.173
lfingers 7.12502
lthumb -17.8962 -0.975927
rfemur -30.4667 -6.68331 38.6226
rtibia 46.9925
rfoot -23.6053 -29.8357
rtoes -13.627
lfemur -78.406 23.0667 -27.9325
ltibia 62.6218
lfoot -20.8317 25.8532
ltoes 15.6823
183
root 4.55976 15.9566 -7.45728 237.289 54.6939 -142.797
lowerback 7.07607 -0.418448 -7.56138
upperback -2.47624 -1.29472 -9.22058
thorax -6.67052 -0.304248 -5.42414
lowerneck -24.1429 2.55283 -5.45462
upperneck 20.8853 3.24507 9.92451
head 10.4017 2.39893 5.02435
rclavicle 1.11319e-014 1.81292e-013
rhumerus -16.1334 -6.86715 -18.6516
rradius 45.1454
rwrist 2.68274
rhand -29.0934 -52.8713
rfingers 7.12502
rthumb 177.558 97.163
lclavicle 1.11319e-014 1.81292e-013
lhumerus -4.03362 5.87914 33.7598
lradius 41.6812
lwrist 29.4156
lhand -44.9983 -749.5
lfingers 7.12502
lthumb -17.782 -0.293301
rfemur -30.5281 -6.21781 37.7567
rtibia 46.7422
rfoot -24.0578 -29.8356
rtoes -12.5331
lfemur -77.9742 22.9672 -28.2867
ltibia 62.2135
lfoot -19.8169 25.4417
ltoes 15.8834
184
root 4.52934 15.9885 -7.38563 237.606 55.1073 -142.321
lowerback 6.9737 0.0242583 -6.65598
upperback -2.75778 -0.686435 -8.60023
thorax -6.88756 -0.0620783 -5.33557
lowerneck -23.0074 1.7734 -7.05476
upperneck 20.8109 2.56121 10.3383
head 10.1949 1.98688 5.30441
rclavicle 9.54166e-015 -2.54444e-014
rhumerus -17.1922 -6.00732 -18.3666
rradius 46.3601
rwrist 3.12937
rhand -28.6469 -52.5617
rfingers 7.12502
rthumb 177.989 97.468
lclavicle 9.54166e-015 -2.54444e-014
lhumerus -4.14553 4.79052 35.4568
lradius 42.324
lwrist 28.9405
lhand -44.771 -750.631
lfingers 7.12502
lthumb -17.5632 -1.40411
rfemur -30.5409 -6.10092 37.8625
rtibia 46.5158
rfoot -23.0292 -30.4341
rtoes -13.173
lfemur -77.7335 23.2063 -27.9214
ltibia 61.9171
lfoot -18.7071 25.1403
ltoes 15.3362
185
root 4.50331 16.038 -7.34017 238.195 56.4448 -142.313
lowerback 5.84497 0.153109 -6.34265
upperback -2.87121 -0.362417 -8.69396
thorax -6.34426 0.0783132 -5.62802
lowerneck -22.799 1.51278 -7.2628
upperneck 20.6414 2.25578 10.3215
head 10.125 1.82075 5.27549
rclavicle -1.11319e-014 1.59028e-014
rhumerus -17.6186 -6.07197 -19.4053
rradius 47.3343
rwrist 3.96497
rhand -27.5801 -52.4512
rfingers 7.12502
rthumb 179.02 97.5713
lclavicle -1.11319e-014 1.59028e-014
lhumerus -4.11874 4.16793 35.8513
lradius 43.159
lwrist 28.7706
lhand -44.4324 -752.344
lfingers 7.12502
lthumb -17.2374 -3.08895
rfemur -31.3319 -6.31359 37.0743
rtibia 46.3431
rfoot -21.8798 -30.299
rtoes -13.3031
lfemur -77.9661 23.5339 -28.8536
ltibia 61.408
lfoot -18.3202 24.8263
ltoes 14.9391
186
root 4.47822 16.0717 -7.28731 239.232 56.9679 -141.492
lowerback 5.16167 0.674608 -5.3962
upperback -3.50945 0.386905 -8.00418
thorax -6.58605 0.39396 -5.49732
lowerneck -20.5191 0.934355 -9.13013
upperneck 20.2558 1.89724 10.429
head 9.58004 1.48264 5.49307
rclavicle 4.92986e-014 5.725e-014
rhumerus -18.769 -4.56745 -18.9225
rradius 48.4076
rwrist 3.93086
rhand -27.7156 -52.1182
rfingers 7.12502
rthumb 178.889 97.905
lclavicle 4.92986e-014 5.725e-014
lhumerus -4.9282 2.95988 37.8084
lradius 44.1759
lwrist 27.7513
lhand -44.0308 -751.044
lfingers 7.12502
lthumb -16.8509 -1.75482
rfemur -31.8043 -6.67437 37.25
rtibia 46.1145
rfoot -21.8748 -29.4456
rtoes -12.3893
lfemur -78.1995 23.9314 -28.7278
ltibia 61.0288
lfoot -17.887 24.5427
ltoes 14.4176
